<?xml version="1.0" encoding="utf-8"?>
<!-- Generator: Adobe Illustrator 23.0.3, SVG Export Plug-In . SVG Version: 6.00 Build 0)  -->
<svg version="1.1" id="Слой_1" xmlns="http://www.w3.org/2000/svg" xmlns:xlink="http://www.w3.org/1999/xlink" x="0px" y="0px"
	 viewBox="0 0 32.3 32.3" style="enable-background:new 0 0 32.3 32.3;" xml:space="preserve">
<style type="text/css">
	.st0{fill:#231F20;}
	.st1{fill:#D61F2C;}
	.st2{fill:#D483A2;}
	.st3{fill:#8A92C8;}
	.st4{fill:#F26767;}
	.st5{fill:#5F67AF;}
	.st6{fill:#EB2627;}
	.st7{fill:#3C54A4;}
	.st8{fill:#FFFFFF;}
</style>
<g>
	
		<rect x="4.1" y="0.1" transform="matrix(-1 -1.224647e-16 1.224647e-16 -1 15.6889 7.6888)" class="st1" width="7.4" height="7.4"/>
	
		<rect x="12.5" y="0.1" transform="matrix(-1 -1.224647e-16 1.224647e-16 -1 32.3814 7.6888)" class="st2" width="7.4" height="7.4"/>
	
		<rect x="4.1" y="8.3" transform="matrix(-1 -1.224647e-16 1.224647e-16 -1 15.6889 24.0629)" class="st3" width="7.4" height="7.4"/>
	
		<rect x="20.8" y="8.3" transform="matrix(-1 -1.224647e-16 1.224647e-16 -1 49.074 24.0629)" class="st4" width="7.4" height="7.4"/>
	
		<rect x="20.8" y="16.5" transform="matrix(-1 -1.224647e-16 1.224647e-16 -1 49.074 40.437)" class="st5" width="7.4" height="7.4"/>
	
		<rect x="12.4" y="16.5" transform="matrix(-1 -1.224647e-16 1.224647e-16 -1 32.2569 40.437)" class="st6" width="7.4" height="7.4"/>
	
		<rect x="20.8" y="0.1" transform="matrix(-1 -1.224647e-16 1.224647e-16 -1 49.074 7.6888)" class="st7" width="7.4" height="7.4"/>
	
		<rect x="4.1" y="24.7" transform="matrix(-1 -1.224647e-16 1.224647e-16 -1 15.6889 56.8111)" class="st7" width="7.4" height="7.4"/>
	
		<rect x="4.1" y="16.5" transform="matrix(-1 -1.224647e-16 1.224647e-16 -1 15.6889 40.437)" class="st4" width="7.4" height="7.4"/>
</g>
</svg>
