<?xml version="1.0" encoding="utf-8"?>
<!-- Generator: Adobe Illustrator 23.0.3, SVG Export Plug-In . SVG Version: 6.00 Build 0)  -->
<svg version="1.1" id="Слой_1" xmlns="http://www.w3.org/2000/svg" xmlns:xlink="http://www.w3.org/1999/xlink" x="0px" y="0px"
	 viewBox="0 0 358 84.3" style="enable-background:new 0 0 358 84.3;" xml:space="preserve">
<style type="text/css">
	.st0{fill:#231F20;}
	.st1{fill:#D61F2C;}
	.st2{fill:#D483A2;}
	.st3{fill:#8A92C8;}
	.st4{fill:#F26767;}
	.st5{fill:#5F67AF;}
	.st6{fill:#EB2627;}
	.st7{fill:#3C54A4;}
	.st8{fill:#FFFFFF;}
</style>
<rect y="0.3" transform="matrix(-1 -1.224647e-16 1.224647e-16 -1 19.5555 20.0943)" class="st1" width="19.6" height="19.6"/>
<rect x="21.9" y="0.3" transform="matrix(-1 -1.224647e-16 1.224647e-16 -1 63.4375 20.0943)" class="st2" width="19.6" height="19.6"/>
<rect y="21.8" transform="matrix(-1 -1.224647e-16 1.224647e-16 -1 19.5555 63.139)" class="st3" width="19.6" height="19.6"/>
<rect x="43.6" y="21.8" transform="matrix(-1 -1.224647e-16 1.224647e-16 -1 106.6645 63.139)" class="st4" width="19.6" height="19.6"/>
<rect x="43.6" y="43.3" transform="matrix(-1 -1.224647e-16 1.224647e-16 -1 106.6645 106.1837)" class="st5" width="19.6" height="19.6"/>
<rect x="21.8" y="43.3" transform="matrix(-1 -1.224647e-16 1.224647e-16 -1 63.11 106.1837)" class="st6" width="19.6" height="19.6"/>
<rect x="43.9" y="0.3" transform="matrix(-1 -1.224647e-16 1.224647e-16 -1 107.3195 20.0943)" class="st7" width="19.6" height="19.6"/>
<rect y="64.8" transform="matrix(-1 -1.224647e-16 1.224647e-16 -1 19.5555 149.2285)" class="st7" width="19.6" height="19.6"/>
<rect y="43.3" transform="matrix(-1 -1.224647e-16 1.224647e-16 -1 19.5555 106.1837)" class="st4" width="19.6" height="19.6"/>
<g>
	<path class="st0" d="M86.9,22.5h12.7c9,0,15.6,3.1,15.6,12.4c0,9-6.7,13.1-15.4,13.1h-5.8v14.8h-7.2V22.5z M99.3,42.3
		c6,0,8.9-2.4,8.9-7.4c0-5-3.1-6.7-9.1-6.7h-5v14.1H99.3z"/>
	<path class="st0" d="M122.2,19.3h7.1v11.3l-0.3,5.9c2.5-2.4,5.6-4.6,9.7-4.6c6.5,0,9.3,4.4,9.3,12v19h-7.1V44.8
		c0-5-1.4-6.9-4.7-6.9c-2.7,0-4.4,1.3-6.9,3.8v21.2h-7.1V19.3z"/>
	<path class="st0" d="M155,54.7c0-6.5,5.4-9.9,17.8-11.2c-0.1-3.3-1.4-6-5.5-6c-3,0-5.9,1.4-8.5,3l-2.6-4.7c3.3-2.1,7.6-4,12.4-4
		c7.6,0,11.3,4.7,11.3,13.1v17.9h-5.8l-0.5-3.4h-0.2c-2.7,2.3-5.8,4.1-9.4,4.1C158.7,63.6,155,60,155,54.7z M172.8,54.7v-6.8
		c-8.2,1-11,3.2-11,6.2c0,2.7,1.8,3.9,4.4,3.9C168.7,58,170.6,56.8,172.8,54.7z"/>
	<path class="st0" d="M188.5,32.6h5.8l0.5,4.1h0.2c2.7-2.6,5.8-4.8,9.9-4.8c6.5,0,9.3,4.4,9.3,12v19h-7.1V44.8c0-5-1.4-6.9-4.7-6.9
		c-2.7,0-4.4,1.3-6.9,3.8v21.2h-7.1V32.6z"/>
	<path class="st0" d="M224.1,52.6V38.2h-4.3v-5.3l4.7-0.3l0.8-8.3h5.9v8.3h7.7v5.7h-7.7v14.4c0,3.6,1.4,5.3,4.3,5.3
		c1,0,2.3-0.3,3.2-0.7l1.2,5.2c-1.7,0.5-3.8,1.1-6.2,1.1C226.7,63.6,224.1,59.2,224.1,52.6z"/>
	<path class="st0" d="M242.4,54.7c0-6.5,5.4-9.9,17.8-11.2c-0.1-3.3-1.4-6-5.5-6c-3,0-5.9,1.4-8.5,3l-2.6-4.7c3.3-2.1,7.6-4,12.4-4
		c7.6,0,11.3,4.7,11.3,13.1v17.9h-5.8l-0.5-3.4h-0.2c-2.7,2.3-5.8,4.1-9.4,4.1C246,63.6,242.4,60,242.4,54.7z M260.2,54.7v-6.8
		c-8.2,1-11,3.2-11,6.2c0,2.7,1.8,3.9,4.4,3.9C256.1,58,258,56.8,260.2,54.7z"/>
	<path class="st0" d="M272.9,59.4l3.3-4.5c2.7,2.1,5.3,3.4,8.4,3.4c3.3,0,4.9-1.6,4.9-3.6c0-2.5-3.3-3.7-6.5-4.9
		c-4-1.5-8.5-3.8-8.5-8.8c0-5.3,4.2-9.1,11-9.1c4.2,0,7.6,1.7,10.1,3.6l-3.3,4.4c-2.1-1.6-4.3-2.6-6.6-2.6c-3,0-4.5,1.5-4.5,3.4
		c0,2.4,3.1,3.3,6.3,4.5c4.1,1.5,8.7,3.5,8.7,9.2c0,5.2-4.1,9.4-11.8,9.4C280.2,63.6,275.8,61.8,272.9,59.4z"/>
	<path class="st0" d="M302.1,51.6v-19h7.1v18.1c0,5,1.4,6.9,4.7,6.9c2.7,0,4.4-1.2,6.7-4.2V32.6h7.1v30.3h-5.8l-0.5-4.5h-0.2
		c-2.7,3.2-5.6,5.2-9.8,5.2C305,63.6,302.1,59.2,302.1,51.6z"/>
	<path class="st0" d="M333.8,59.4l3.3-4.5c2.7,2.1,5.3,3.4,8.4,3.4c3.3,0,4.9-1.6,4.9-3.6c0-2.5-3.3-3.7-6.5-4.9
		c-4-1.5-8.5-3.8-8.5-8.8c0-5.3,4.2-9.1,11-9.1c4.2,0,7.6,1.7,10.1,3.6l-3.3,4.4c-2.1-1.6-4.3-2.6-6.6-2.6c-3,0-4.5,1.5-4.5,3.4
		c0,2.4,3.1,3.3,6.3,4.5c4.1,1.5,8.7,3.5,8.7,9.2c0,5.2-4.1,9.4-11.8,9.4C341.1,63.6,336.7,61.8,333.8,59.4z"/>
</g>
</svg>
